<?xml version="1.0" encoding="utf-8"?>
<!DOCTYPE svg PUBLIC "-//W3C//DTD SVG 1.1//EN" "http://www.w3.org/Graphics/SVG/1.1/DTD/svg11.dtd">
<svg class="marks" width="730" height="730" viewBox="0 0 730 730" version="1.1" xmlns="http://www.w3.org/2000/svg" xmlns:xlink="http://www.w3.org/1999/xlink"><g fill="none" stroke-miterlimit="10" transform="translate(5,5)"><g class="mark-group role-frame root" role="graphics-object" aria-roledescription="group mark container"><g transform="translate(0,0)"><path class="background" aria-hidden="true" d="M0,0h720v720h-720Z"></path><g><g class="mark-path role-mark" role="graphics-symbol" aria-roledescription="path mark container"><path transform="translate(0,0)" d="M360,360L360,200" stroke="#ccc"></path><path transform="translate(0,0)" d="M360,360L420,140" stroke="#ccc"></path><path transform="translate(0,0)" d="M360,360L470,160" stroke="#ccc"></path><path transform="translate(0,0)" d="M360,360L520,180" stroke="#ccc"></path><path transform="translate(0,0)" d="M360,360L530,220" stroke="#ccc"></path><path transform="translate(0,0)" d="M360,360L580,250" stroke="#ccc"></path><path transform="translate(0,0)" d="M360,360L520,300" stroke="#ccc"></path><path transform="translate(0,0)" d="M360,360L600,320" stroke="#ccc"></path><path transform="translate(0,0)" d="M360,360L360,520" stroke="#ccc"></path><path transform="translate(0,0)" d="M360,360L500,360" stroke="#ccc"></path><path transform="translate(0,0)" d="M360,360L140,345" stroke="#ccc"></path><path transform="translate(0,0)" d="M360,360L130,440" stroke="#ccc"></path><path transform="translate(0,0)" d="M360,200L300,140" stroke="#ccc"></path><path transform="translate(0,0)" d="M360,200L230,180" stroke="#ccc"></path><path transform="translate(0,0)" d="M360,200L250,240" stroke="#ccc"></path><path transform="translate(0,0)" d="M360,520L430,440" stroke="#ccc"></path><path transform="translate(0,0)" d="M360,520L430,580" stroke="#ccc"></path><path transform="translate(0,0)" d="M360,520L290,580" stroke="#ccc"></path><path transform="translate(0,0)" d="M500,360L580,250" stroke="#ccc"></path><path transform="translate(0,0)" d="M500,360L520,300" stroke="#ccc"></path><path transform="translate(0,0)" d="M500,360L600,320" stroke="#ccc"></path><path transform="translate(0,0)" d="M500,360L430,440" stroke="#ccc"></path><path transform="translate(0,0)" d="M500,360L600,440" stroke="#ccc"></path><path transform="translate(0,0)" d="M500,360L510,500" stroke="#ccc"></path><path transform="translate(0,0)" d="M150,290L360,360" stroke="#ccc"></path><path transform="translate(0,0)" d="M180,500L360,360" stroke="#ccc"></path></g><g class="mark-symbol role-mark" role="graphics-symbol" aria-roledescription="symbol mark container"><path transform="translate(360,215)" d="M0,-6.123724356957945L-7.0710678118654755,6.123724356957945L7.0710678118654755,6.123724356957945Z" fill="#ccc" stroke="#555" stroke-width="1"></path><path transform="translate(416,154) rotate(15)" d="M0,-6.123724356957945L-7.0710678118654755,6.123724356957945L7.0710678118654755,6.123724356957945Z" fill="#ccc" stroke="#555" stroke-width="1"></path><path transform="translate(463,172) rotate(25)" d="M0,-6.123724356957945L-7.0710678118654755,6.123724356957945L7.0710678118654755,6.123724356957945Z" fill="#ccc" stroke="#555" stroke-width="1"></path><path transform="translate(511,191) rotate(37)" d="M0,-6.123724356957945L-7.0710678118654755,6.123724356957945L7.0710678118654755,6.123724356957945Z" fill="#ccc" stroke="#555" stroke-width="1"></path><path transform="translate(520,230) rotate(45)" d="M0,-6.123724356957945L-7.0710678118654755,6.123724356957945L7.0710678118654755,6.123724356957945Z" fill="#ccc" stroke="#555" stroke-width="1"></path><path transform="translate(567,255) rotate(60)" d="M0,-6.123724356957945L-7.0710678118654755,6.123724356957945L7.0710678118654755,6.123724356957945Z" fill="#ccc" stroke="#555" stroke-width="1"></path><path transform="translate(505,305) rotate(72)" d="M0,-6.123724356957945L-7.0710678118654755,6.123724356957945L7.0710678118654755,6.123724356957945Z" fill="#ccc" stroke="#555" stroke-width="1"></path><path transform="translate(585,322) rotate(82)" d="M0,-6.123724356957945L-7.0710678118654755,6.123724356957945L7.0710678118654755,6.123724356957945Z" fill="#ccc" stroke="#555" stroke-width="1"></path><path transform="translate(485,360) rotate(90)" d="M0,-6.123724356957945L-7.0710678118654755,6.123724356957945L7.0710678118654755,6.123724356957945Z" fill="#ccc" stroke="#555" stroke-width="1"></path><path transform="translate(360,505) rotate(180)" d="M0,-6.123724356957945L-7.0710678118654755,6.123724356957945L7.0710678118654755,6.123724356957945Z" fill="#ccc" stroke="#555" stroke-width="1"></path><path transform="translate(348,369) rotate(47)" d="M0,-6.123724356957945L-7.0710678118654755,6.123724356957945L7.0710678118654755,6.123724356957945Z" fill="#ccc" stroke="#555" stroke-width="1"></path><path transform="translate(346,356) rotate(113)" d="M0,-6.123724356957945L-7.0710678118654755,6.123724356957945L7.0710678118654755,6.123724356957945Z" fill="#ccc" stroke="#555" stroke-width="1"></path><path transform="translate(310,150) rotate(-40)" d="M0,-6.123724356957945L-7.0710678118654755,6.123724356957945L7.0710678118654755,6.123724356957945Z" fill="#ccc" stroke="#555" stroke-width="1"></path><path transform="translate(245,183) rotate(-80)" d="M0,-6.123724356957945L-7.0710678118654755,6.123724356957945L7.0710678118654755,6.123724356957945Z" fill="#ccc" stroke="#555" stroke-width="1"></path><path transform="translate(263,234) rotate(-115)" d="M0,-6.123724356957945L-7.0710678118654755,6.123724356957945L7.0710678118654755,6.123724356957945Z" fill="#ccc" stroke="#555" stroke-width="1"></path><path transform="translate(573,261) rotate(30)" d="M0,-6.123724356957945L-7.0710678118654755,6.123724356957945L7.0710678118654755,6.123724356957945Z" fill="#ccc" stroke="#555" stroke-width="1"></path><path transform="translate(515,315) rotate(12)" d="M0,-6.123724356957945L-7.0710678118654755,6.123724356957945L7.0710678118654755,6.123724356957945Z" fill="#ccc" stroke="#555" stroke-width="1"></path><path transform="translate(587,326) rotate(75)" d="M0,-6.123724356957945L-7.0710678118654755,6.123724356957945L7.0710678118654755,6.123724356957945Z" fill="#ccc" stroke="#555" stroke-width="1"></path><path transform="translate(589,429) rotate(135)" d="M0,-6.123724356957945L-7.0710678118654755,6.123724356957945L7.0710678118654755,6.123724356957945Z" fill="#ccc" stroke="#555" stroke-width="1"></path><path transform="translate(440,430) rotate(-135)" d="M0,-6.123724356957945L-7.0710678118654755,6.123724356957945L7.0710678118654755,6.123724356957945Z" fill="#ccc" stroke="#555" stroke-width="1"></path><path transform="translate(420,450) rotate(42)" d="M0,-6.123724356957945L-7.0710678118654755,6.123724356957945L7.0710678118654755,6.123724356957945Z" fill="#ccc" stroke="#555" stroke-width="1"></path><path transform="translate(419,569) rotate(135)" d="M0,-6.123724356957945L-7.0710678118654755,6.123724356957945L7.0710678118654755,6.123724356957945Z" fill="#ccc" stroke="#555" stroke-width="1"></path><path transform="translate(301,569) rotate(-135)" d="M0,-6.123724356957945L-7.0710678118654755,6.123724356957945L7.0710678118654755,6.123724356957945Z" fill="#ccc" stroke="#555" stroke-width="1"></path><path transform="translate(510,485) rotate(178)" d="M0,-6.123724356957945L-7.0710678118654755,6.123724356957945L7.0710678118654755,6.123724356957945Z" fill="#ccc" stroke="#555" stroke-width="1"></path><path transform="translate(155,346) rotate(-87)" d="M0,-6.123724356957945L-7.0710678118654755,6.123724356957945L7.0710678118654755,6.123724356957945Z" fill="#ccc" stroke="#555" stroke-width="1"></path><path transform="translate(145,436) rotate(-118)" d="M0,-6.123724356957945L-7.0710678118654755,6.123724356957945L7.0710678118654755,6.123724356957945Z" fill="#ccc" stroke="#555" stroke-width="1"></path></g><g class="mark-symbol role-mark" role="graphics-symbol" aria-roledescription="symbol mark container"><path transform="translate(360,360)" d="M8.660254037844387,0A8.660254037844387,8.660254037844387,0,1,1,-8.660254037844387,0A8.660254037844387,8.660254037844387,0,1,1,8.660254037844387,0" fill="#f00" stroke="#fff"></path><path transform="translate(360,200)" d="M8.660254037844387,0A8.660254037844387,8.660254037844387,0,1,1,-8.660254037844387,0A8.660254037844387,8.660254037844387,0,1,1,8.660254037844387,0" fill="#f00" stroke="#fff"></path><path transform="translate(360,520)" d="M8.660254037844387,0A8.660254037844387,8.660254037844387,0,1,1,-8.660254037844387,0A8.660254037844387,8.660254037844387,0,1,1,8.660254037844387,0" fill="#f00" stroke="#fff"></path><path transform="translate(500,360)" d="M8.660254037844387,0A8.660254037844387,8.660254037844387,0,1,1,-8.660254037844387,0A8.660254037844387,8.660254037844387,0,1,1,8.660254037844387,0" fill="#f00" stroke="#fff"></path><path transform="translate(150,290)" d="M8.660254037844387,0A8.660254037844387,8.660254037844387,0,1,1,-8.660254037844387,0A8.660254037844387,8.660254037844387,0,1,1,8.660254037844387,0" fill="#0f0" stroke="#fff"></path><path transform="translate(180,500)" d="M8.660254037844387,0A8.660254037844387,8.660254037844387,0,1,1,-8.660254037844387,0A8.660254037844387,8.660254037844387,0,1,1,8.660254037844387,0" fill="#0f0" stroke="#fff"></path><path transform="translate(420,140)" d="M8.660254037844387,0A8.660254037844387,8.660254037844387,0,1,1,-8.660254037844387,0A8.660254037844387,8.660254037844387,0,1,1,8.660254037844387,0" fill="#00f" stroke="#fff"></path><path transform="translate(470,160)" d="M8.660254037844387,0A8.660254037844387,8.660254037844387,0,1,1,-8.660254037844387,0A8.660254037844387,8.660254037844387,0,1,1,8.660254037844387,0" fill="#00f" stroke="#fff"></path><path transform="translate(520,180)" d="M8.660254037844387,0A8.660254037844387,8.660254037844387,0,1,1,-8.660254037844387,0A8.660254037844387,8.660254037844387,0,1,1,8.660254037844387,0" fill="#00f" stroke="#fff"></path><path transform="translate(530,220)" d="M8.660254037844387,0A8.660254037844387,8.660254037844387,0,1,1,-8.660254037844387,0A8.660254037844387,8.660254037844387,0,1,1,8.660254037844387,0" fill="#00f" stroke="#fff"></path><path transform="translate(580,250)" d="M8.660254037844387,0A8.660254037844387,8.660254037844387,0,1,1,-8.660254037844387,0A8.660254037844387,8.660254037844387,0,1,1,8.660254037844387,0" fill="#00f" stroke="#fff"></path><path transform="translate(520,300)" d="M8.660254037844387,0A8.660254037844387,8.660254037844387,0,1,1,-8.660254037844387,0A8.660254037844387,8.660254037844387,0,1,1,8.660254037844387,0" fill="#00f" stroke="#fff"></path><path transform="translate(600,320)" d="M8.660254037844387,0A8.660254037844387,8.660254037844387,0,1,1,-8.660254037844387,0A8.660254037844387,8.660254037844387,0,1,1,8.660254037844387,0" fill="#00f" stroke="#fff"></path><path transform="translate(430,440)" d="M8.660254037844387,0A8.660254037844387,8.660254037844387,0,1,1,-8.660254037844387,0A8.660254037844387,8.660254037844387,0,1,1,8.660254037844387,0" fill="#00f" stroke="#fff"></path><path transform="translate(600,440)" d="M8.660254037844387,0A8.660254037844387,8.660254037844387,0,1,1,-8.660254037844387,0A8.660254037844387,8.660254037844387,0,1,1,8.660254037844387,0" fill="#00f" stroke="#fff"></path><path transform="translate(430,580)" d="M8.660254037844387,0A8.660254037844387,8.660254037844387,0,1,1,-8.660254037844387,0A8.660254037844387,8.660254037844387,0,1,1,8.660254037844387,0" fill="#00f" stroke="#fff"></path><path transform="translate(290,580)" d="M8.660254037844387,0A8.660254037844387,8.660254037844387,0,1,1,-8.660254037844387,0A8.660254037844387,8.660254037844387,0,1,1,8.660254037844387,0" fill="#00f" stroke="#fff"></path><path transform="translate(300,140)" d="M8.660254037844387,0A8.660254037844387,8.660254037844387,0,1,1,-8.660254037844387,0A8.660254037844387,8.660254037844387,0,1,1,8.660254037844387,0" fill="#00f" stroke="#fff"></path><path transform="translate(230,180)" d="M8.660254037844387,0A8.660254037844387,8.660254037844387,0,1,1,-8.660254037844387,0A8.660254037844387,8.660254037844387,0,1,1,8.660254037844387,0" fill="#00f" stroke="#fff"></path><path transform="translate(250,240)" d="M8.660254037844387,0A8.660254037844387,8.660254037844387,0,1,1,-8.660254037844387,0A8.660254037844387,8.660254037844387,0,1,1,8.660254037844387,0" fill="#00f" stroke="#fff"></path><path transform="translate(510,500)" d="M8.660254037844387,0A8.660254037844387,8.660254037844387,0,1,1,-8.660254037844387,0A8.660254037844387,8.660254037844387,0,1,1,8.660254037844387,0" fill="#0ff" stroke="#fff"></path><path transform="translate(140,345)" d="M8.660254037844387,0A8.660254037844387,8.660254037844387,0,1,1,-8.660254037844387,0A8.660254037844387,8.660254037844387,0,1,1,8.660254037844387,0" fill="#0ff" stroke="#fff"></path><path transform="translate(130,440)" d="M8.660254037844387,0A8.660254037844387,8.660254037844387,0,1,1,-8.660254037844387,0A8.660254037844387,8.660254037844387,0,1,1,8.660254037844387,0" fill="#0ff" stroke="#fff"></path></g><g class="mark-text role-mark" role="graphics-object" aria-roledescription="text mark container"><text text-anchor="start" transform="translate(372,355)" font-family="sans-serif" font-size="15px" fill="#000">spaceindex</text><text text-anchor="start" transform="translate(372,195)" font-family="sans-serif" font-size="15px" fill="#000">boundingbox</text><text text-anchor="start" transform="translate(372,515)" font-family="sans-serif" font-size="15px" fill="#000">coordintervals</text><text text-anchor="start" transform="translate(512,355)" font-family="sans-serif" font-size="15px" fill="#000">boxcovering</text><text text-anchor="start" transform="translate(162,285)" font-family="sans-serif" font-size="15px" fill="#000">fragmentlines</text><text text-anchor="start" transform="translate(192,495)" font-family="sans-serif" font-size="15px" fill="#000">decomposition</text><text text-anchor="start" transform="translate(432,135)" font-family="sans-serif" font-size="15px" fill="#000">setdiff</text><text text-anchor="start" transform="translate(482,155)" font-family="sans-serif" font-size="15px" fill="#000">hcat</text><text text-anchor="start" transform="translate(532,175)" font-family="sans-serif" font-size="15px" fill="#000">zip</text><text text-anchor="start" transform="translate(542,215)" font-family="sans-serif" font-size="15px" fill="#000">size</text><text text-anchor="start" transform="translate(592,245)" font-family="sans-serif" font-size="15px" fill="#000">intersect</text><text text-anchor="start" transform="translate(532,295)" font-family="sans-serif" font-size="15px" fill="#000">tuple</text><text text-anchor="start" transform="translate(612,315)" font-family="sans-serif" font-size="15px" fill="#000">length</text><text text-anchor="start" transform="translate(442,435)" font-family="sans-serif" font-size="15px" fill="#000">enumerate</text><text text-anchor="start" transform="translate(612,435)" font-family="sans-serif" font-size="15px" fill="#000">append!</text><text text-anchor="start" transform="translate(442,575)" font-family="sans-serif" font-size="15px" fill="#000">haskey</text><text text-anchor="start" transform="translate(302,575)" font-family="sans-serif" font-size="15px" fill="#000">push!</text><text text-anchor="start" transform="translate(312,135)" font-family="sans-serif" font-size="15px" fill="#000">mapslices</text><text text-anchor="start" transform="translate(242,175)" font-family="sans-serif" font-size="15px" fill="#000">min</text><text text-anchor="start" transform="translate(262,235)" font-family="sans-serif" font-size="15px" fill="#000">max</text><text text-anchor="start" transform="translate(522,495)" font-family="sans-serif" font-size="15px" fill="#000">addIntersection!</text><text text-anchor="start" transform="translate(152,340)" font-family="sans-serif" font-size="15px" fill="#000">createIntervalTree</text><text text-anchor="start" transform="translate(142,435)" font-family="sans-serif" font-size="15px" fill="#000">removeSelfIntersection!</text></g></g><path class="foreground" aria-hidden="true" d="" display="none"></path></g></g></g></svg>
